<?xml version="1.0" encoding="UTF-8"?><svg xmlns="http://www.w3.org/2000/svg" xmlns:xlink="http://www.w3.org/1999/xlink" viewBox="0 0 400 400"><defs><style>.cls-1{fill:#fff;}.cls-2{fill:#6d2d09;}.cls-3{isolation:isolate;}.cls-4{opacity:.35;}.cls-5{fill:#a5702e;}.cls-6{clip-path:url(#clippath-1);}.cls-7{fill:gray;}.cls-8{fill:#5b2408;}.cls-9{fill:#8e5c26;}.cls-10{mix-blend-mode:screen;}.cls-11{fill:#af7638;}.cls-12{clip-path:url(#clippath);}.cls-13{fill:#7f4f1f;}.cls-14{fill:none;}.cls-15{fill:#8e5b24;}.cls-16{fill:#edccb9;}.cls-17{mix-blend-mode:multiply;}.cls-18{fill:#006057;}</style><clipPath id="clippath"><rect class="cls-14" x="188.63" y="269.12" width="22.73" height="22.73" rx="6" ry="6" transform="translate(400 560.97) rotate(180)"/></clipPath><clipPath id="clippath-1"><rect class="cls-14" x="188.63" y="305.13" width="22.73" height="22.73" rx="6" ry="6" transform="translate(400 632.99) rotate(180)"/></clipPath></defs><g class="cls-3"><g id="Layer_2"><g><path class="cls-9" d="M233.03,129.7s-30.36,42.44,11.04,72.96c30.52-41.4-11.04-72.96-11.04-72.96Z"/><path class="cls-9" d="M158.65,132.5s-38.24,35.51-3.78,73.69c38.19-34.46,3.78-73.69,3.78-73.69Z"/><path class="cls-11" d="M193.21,69.06s-45.35,48.29,65.74,60.65c-4.31-66.76-65.74-60.65-65.74-60.65Z"/><path class="cls-11" d="M201.71,69.06s45.35,48.29-65.74,60.65c4.31-66.76,65.74-60.65,65.74-60.65Z"/><path class="cls-5" d="M169.01,102.09s-48.75,18.61-31.09,66.92c48.31-17.66,31.09-66.92,31.09-66.92Z"/><path class="cls-5" d="M231.42,105.58s-21.31,47.63,25.33,69.31c21.67-46.64-25.33-69.31-25.33-69.31Z"/><path class="cls-9" d="M222.4,131.83s-30.36,42.44,11.04,72.96c30.52-41.4-11.04-72.96-11.04-72.96Z"/><path class="cls-9" d="M171.2,132.55s-38.24,35.51-3.78,73.69c38.19-34.46,3.78-73.69,3.78-73.69Z"/><path class="cls-16" d="M199.79,220.29c-68.54,0-124.1,36.92-124.1,82.46,0,15.6,55.56,28.24,124.1,28.24s124.1-12.65,124.1-28.24c0-45.54-55.56-82.46-124.1-82.46Z"/><path class="cls-18" d="M244.2,225.62c-5.55,24.59-23.14,42.57-43.98,42.57s-38.43-17.97-43.98-42.57c-46.83,11.8-80.12,41.87-80.12,77.12,0,15.6,55.56,28.24,124.1,28.24s124.1-12.65,124.1-28.24c0-35.25-33.29-65.33-80.12-77.12Z"/><g class="cls-17"><path class="cls-7" d="M199.79,273.08c-12.3,0-23.9-5.01-33.54-14.49-7.22-7.1-12.45-16.88-16.48-30.8l1.23-.35c3.96,13.7,9.09,23.31,16.15,30.25,9.4,9.24,20.69,14.13,32.64,14.13s23.24-4.89,32.64-14.13c7.05-6.94,12.19-16.55,16.15-30.25l1.23,.35c-4.03,13.92-9.26,23.71-16.48,30.8-9.64,9.48-21.24,14.49-33.54,14.49Z"/></g><rect class="cls-16" x="169.8" y="165.31" width="59.97" height="79.31"/><g class="cls-17"><polygon class="cls-16" points="169.8 222.71 198.3 194.21 169.8 194.21 169.8 222.71"/></g><g><g><circle class="cls-16" cx="242.33" cy="154.25" r="14.16"/><g class="cls-17"><path class="cls-16" d="M233.95,153.89c-.1,0-.2-.02-.29-.07-.31-.16-.43-.55-.27-.86,.13-.24,3.16-5.97,8.39-6.77,3.1-.48,6.26,.87,9.4,4.02,.25,.25,.25,.65,0,.9s-.65,.25-.9,0c-2.84-2.84-5.63-4.07-8.3-3.66-4.59,.7-7.43,6.05-7.46,6.1-.11,.22-.34,.34-.57,.34Z"/></g></g><g><circle class="cls-16" cx="157.24" cy="154.25" r="14.16"/><g class="cls-17"><path class="cls-16" d="M165.63,153.89c-.23,0-.45-.13-.57-.34-.03-.05-2.87-5.4-7.46-6.1-2.67-.41-5.46,.82-8.3,3.66-.25,.25-.65,.25-.9,0s-.25-.65,0-.9c3.14-3.14,6.3-4.49,9.4-4.02,5.23,.81,8.26,6.53,8.39,6.77,.16,.31,.04,.7-.27,.86-.09,.05-.19,.07-.29,.07Z"/></g></g></g><ellipse class="cls-16" cx="199.79" cy="149.49" rx="45.81" ry="59.14"/><path d="M199.79,186.52c-3.79,0-7.58-1.44-10.46-4.33-.25-.25-.25-.65,0-.9s.65-.25,.9,0c5.27,5.27,13.85,5.27,19.12,0,.25-.25,.65-.25,.9,0s.25,.65,0,.9c-2.88,2.88-6.67,4.33-10.46,4.33Z"/><g class="cls-17"><path class="cls-16" d="M208.3,166.69h-10.64c-3.87,0-7.02-3.15-7.02-7.02v-23.33c0-.35,.29-.64,.64-.64s.64,.29,.64,.64v23.33c0,3.17,2.58,5.74,5.74,5.74h10.64c.35,0,.64,.29,.64,.64s-.29,.64-.64,.64Z"/></g><g class="cls-4"><path class="cls-15" d="M157.51,176.55c6.92,21.34,23.24,32.07,42.28,32.07s35.36-10.74,42.28-32.07h-84.55Z"/></g><path class="cls-13" d="M243.07,179.16c.11-1.31-.04-2.63-.45-3.88h0c-.82,0,.48-4.86-.29-4.68-2.63,.62-7.06,7.2-8.54,9.55-3.88,6.15-11.84,16.18-23.42,18.24-4.37,.78-8.67-1.72-10.28-5.85h-.59c-1.3,4.08-5.4,6.6-9.63,5.89-11.8-1.96-20.02-12.13-24.02-18.32-1.06-1.64-6.47-7.4-8.17-8.23-1.43-.7,.92,3.4-.72,3.4h0c-.41,1.56-.57,3.18-.41,4.79,2.03,21.1,24.55,35.49,42.95,35.78h0c.1,.01,.2,0,.3,0,.1,0,.2,0,.3,0h0c18.52-.31,41.22-16.06,42.99-36.7Z"/><path class="cls-13" d="M197.11,189.45h5.34c1.56,0,2.59,1.63,1.92,3.04l-1.95,4.12c-.35,.74-1.1,1.22-1.92,1.22h-1.31c-.8,0-1.54-.45-1.9-1.17l-2.09-4.12c-.72-1.42,.31-3.09,1.9-3.09Z"/><g><path class="cls-13" d="M197.04,171.41h-.82c-1.64,0-12.83,2.86-15.95,4.02-1.15,.43-2.35,.93-3.07,1.92-.72,.99-.7,2.62,.36,3.24,.57,.33,1.26,.3,1.92,.26,3.48-.22,6.95-.45,10.43-.67,1.17-.08,2.86,0,4.39-.24h.23c1.15,0,2.26-.38,3.16-1.09,1-.78,1.58-1.98,1.58-3.25v-1.95c0-1.23-1-2.24-2.24-2.24Z"/><path class="cls-13" d="M202.53,171.41h.82c1.64,0,12.83,2.86,15.95,4.02,1.15,.43,2.35,.93,3.07,1.92,.72,.99,.7,2.62-.36,3.24-.57,.33-1.26,.3-1.92,.26-3.48-.22-6.95-.45-10.43-.67-1.17-.08-2.86,0-4.39-.24h-.23c-1.15,0-2.26-.38-3.16-1.09-1-.78-1.58-1.98-1.58-3.25v-1.95c0-1.23,1-2.24,2.24-2.24Z"/></g><path class="cls-11" d="M189.65,78.92s9.79,60.06,71.16,51.42c-8.64-61.37-71.16-51.42-71.16-51.42Z"/><path class="cls-11" d="M194.06,77.55s-48.72-3.19-52.55,44.78c47.97,3.83,52.55-44.78,52.55-44.78Z"/><path class="cls-11" d="M172.31,121.12c.84,.19,6.88-.75,10.36-3.24,13.8-9.87,15.32-21.31,15.32-28l-7.78-.16c0,5.79-12.48,30.21-17.91,31.4Z"/><path class="cls-11" d="M204.21,60c-1.23,.08-2.46,.29-3.69,.64-9.14,2.65-14.41,12.21-11.76,21.35l7.15-2.07c-2.29-7.92,1.35-16.14,8.3-19.93Z"/><path class="cls-11" d="M212.14,67.43c-.87-.47-1.81-.85-2.8-1.13-7.38-2.07-15.05,2.23-17.12,9.62l5.77,1.62c1.8-6.39,7.78-10.47,14.15-10.11Z"/><path class="cls-9" d="M187.96,134.77l-19.83-.28c-1.74-.02-1.93-2.62-.19-2.83h.04l19.47-1.97c1.4-.14,2.66,.89,2.8,2.28h0c.14,1.4-.89,2.66-2.28,2.8Z"/><path class="cls-9" d="M211.92,134.77l19.83-.28c1.74-.02,1.93-2.62,.19-2.83h-.04l-19.47-1.97c-1.4-.14-2.66,.89-2.8,2.28h0c-.14,1.4,.89,2.66,2.28,2.8Z"/><g><circle cx="180.12" cy="141.37" r="2.85"/><circle cx="219.46" cy="141.37" r="2.85"/><circle class="cls-1" cx="178.93" cy="141.49" r="1.06"/><circle class="cls-1" cx="179.98" cy="142.96" r=".4"/><circle class="cls-1" cx="218.5" cy="141.49" r="1.06"/><circle class="cls-1" cx="219.55" cy="142.96" r=".4"/><path d="M188.09,141.81c-.12,0-.23-.03-.34-.1-7.73-4.79-14.75-.21-15.05-.01-.29,.19-.69,.12-.89-.17s-.12-.69,.17-.88c.08-.05,7.99-5.25,16.43-.01,.3,.19,.39,.58,.21,.88-.12,.19-.33,.3-.54,.3Z"/><path d="M227.23,141.81c-.12,0-.23-.03-.34-.1-7.73-4.79-14.75-.21-15.05-.01-.29,.19-.69,.12-.89-.17s-.12-.69,.17-.88c.08-.05,7.99-5.25,16.43-.01,.3,.19,.39,.58,.21,.88-.12,.19-.33,.3-.54,.3Z"/></g></g><g><rect class="cls-8" x="187.98" y="325" width="28.94" height="4.08" transform="translate(167.39 710.06) rotate(-143.01)"/><rect class="cls-8" x="201.48" y="263.31" width="13.94" height="4.08" transform="translate(534.6 351.88) rotate(143.01)"/><g><rect class="cls-2" x="184.34" y="264.83" width="31.31" height="31.31" rx="12" ry="12" transform="translate(480.48 80.48) rotate(90)"/><g class="cls-10"><rect class="cls-2" x="188.63" y="269.12" width="22.73" height="22.73" rx="6" ry="6" transform="translate(400 560.97) rotate(180)"/></g><rect class="cls-2" x="184.34" y="300.86" width="31.31" height="31.31" rx="12" ry="12" transform="translate(516.52 116.52) rotate(90)"/><g class="cls-10"><rect class="cls-2" x="188.63" y="305.15" width="22.73" height="22.73" rx="6" ry="6" transform="translate(400 633.03) rotate(180)"/></g></g><path class="cls-2" d="M215.66,299.96v-41.1c0-.7-.8-1.11-1.36-.69l-2.57,1.88c-.22,.16-.35,.42-.35,.69v75.52c0,.27,.13,.53,.35,.69l2.57,1.88c.57,.41,1.36,0,1.36-.69v-38.18Z"/><g class="cls-12"><g class="cls-10"><rect class="cls-2" x="203" y="257.3" width="6.01" height="33.89" transform="translate(545.59 322.5) rotate(135)"/></g><g class="cls-10"><rect class="cls-2" x="199.95" y="262.51" width="2.55" height="33.89" transform="translate(541.11 334.78) rotate(135)"/></g></g><g class="cls-6"><g class="cls-10"><rect class="cls-2" x="203" y="293.31" width="6.01" height="33.89" transform="translate(571.06 383.98) rotate(135)"/></g><g class="cls-10"><rect class="cls-2" x="199.95" y="298.53" width="2.55" height="33.89" transform="translate(566.58 396.26) rotate(135)"/></g></g></g></g></g></svg>