<?xml version="1.0" encoding="UTF-8"?><svg xmlns="http://www.w3.org/2000/svg" viewBox="0 0 400 400"><defs><style>.cls-1{fill:#fff;}.cls-2{fill:#281408;}.cls-3{isolation:isolate;}.cls-4{fill:#017b71;}.cls-5{fill:#a84f48;}.cls-6{fill:#ff9ca1;}.cls-7{fill:#edccb9;}.cls-8{mix-blend-mode:multiply;}</style></defs><g class="cls-3"><g id="Layer_2"><g><path class="cls-2" d="M200.99,68.62h0c31.29,0,56.69,25.4,56.69,56.69v92.36c0,3.29-2.67,5.97-5.97,5.97h-103.44c-3.29,0-5.97-2.67-5.97-5.97V127.3c0-32.39,26.29-58.68,58.68-58.68Z"/><g class="cls-8"><ellipse class="cls-2" cx="200" cy="148.89" rx="54.11" ry="69.85"/></g><path class="cls-7" d="M200,215.62c-55.07,0-99.72,38.18-99.72,85.83,0,16.32,44.65,29.55,99.72,29.55s99.72-13.23,99.72-29.55c0-47.65-44.65-85.83-99.72-85.83Z"/><g><circle class="cls-7" cx="153.36" cy="145.94" r="13.5"/><circle class="cls-7" cx="246.64" cy="145.94" r="13.5"/><g class="cls-8"><path class="cls-7" d="M161.35,145.66c-.24,0-.47-.13-.59-.36-.03-.05-2.72-5.12-7.06-5.78-2.52-.39-5.17,.78-7.86,3.47-.26,.26-.68,.26-.94,0-.26-.26-.26-.68,0-.94,3.01-3.01,6.04-4.3,9.01-3.84,5.02,.77,7.92,6.25,8.04,6.49,.17,.33,.04,.73-.28,.9-.1,.05-.2,.08-.31,.08Z"/></g><g class="cls-8"><path class="cls-7" d="M238.65,145.66c-.1,0-.21-.02-.31-.08-.33-.17-.45-.57-.28-.9,.12-.23,3.02-5.71,8.04-6.49,2.97-.46,6,.84,9.01,3.84,.26,.26,.26,.68,0,.94-.26,.26-.68,.26-.94,0-2.69-2.69-5.33-3.86-7.86-3.47-4.35,.67-7.04,5.73-7.06,5.78-.12,.23-.35,.36-.59,.36Z"/></g></g><g><rect class="cls-7" x="176.51" y="157.53" width="46.99" height="83.04"/><g class="cls-8"><polygon class="cls-7" points="176.51 217.63 198.84 187.79 176.51 187.79 176.51 217.63"/></g></g><ellipse class="cls-7" cx="200" cy="140.96" rx="47.97" ry="61.92"/><g class="cls-8"><path class="cls-7" d="M207.2,160.16h-9c-3.35,0-6.07-2.72-6.07-6.07v-23.33c0-.37,.3-.67,.67-.67s.67,.3,.67,.67v23.33c0,2.61,2.12,4.73,4.73,4.73h9c.37,0,.67,.3,.67,.67s-.3,.67-.67,.67Z"/></g><g><circle cx="177.7" cy="140.47" r="4.32"/><circle class="cls-1" cx="175.57" cy="141.05" r="1.11"/><circle class="cls-1" cx="176.67" cy="142.59" r=".42"/></g><path class="cls-2" d="M187.62,130l-20.76-.29c-1.83-.03-2.02-2.75-.2-2.96h.04l20.39-2.06c1.46-.15,2.78,.93,2.93,2.39h0c.15,1.46-.93,2.78-2.39,2.93Z"/><g><path d="M186.22,139.71c-.12,0-.24-.03-.35-.1-8.12-5.03-15.68-.06-15.76-.01-.31,.21-.72,.12-.93-.18-.21-.31-.12-.72,.18-.93,.08-.06,8.36-5.5,17.21-.01,.31,.19,.41,.61,.22,.92-.13,.2-.34,.32-.57,.32Z"/><path d="M172.11,138.53c-.09,0-.18-.02-.26-.05l-2.93-1.26c-.34-.15-.5-.54-.35-.88,.15-.34,.54-.5,.88-.35l2.93,1.26c.34,.15,.5,.54,.35,.88-.11,.25-.36,.4-.61,.4Z"/><path d="M174.02,137.9c-.17,0-.34-.06-.47-.19l-1.91-1.87c-.26-.26-.27-.68-.01-.95,.26-.26,.68-.27,.94-.01l1.91,1.87c.26,.26,.27,.68,.01,.95-.13,.13-.3,.2-.48,.2Z"/></g><g><circle cx="222.62" cy="140.47" r="4.32"/><circle class="cls-1" cx="220.49" cy="141.05" r="1.11"/><circle class="cls-1" cx="221.58" cy="142.59" r=".42"/></g><g><path d="M214.1,139.71c-.22,0-.44-.11-.57-.32-.19-.31-.1-.73,.22-.92,8.84-5.48,17.12-.04,17.21,.01,.31,.21,.39,.62,.18,.93-.21,.31-.62,.39-.93,.18-.32-.21-7.67-5-15.76,.01-.11,.07-.23,.1-.35,.1Z"/><path d="M228.21,138.53c-.26,0-.51-.15-.61-.4-.15-.34,.01-.73,.35-.88l2.93-1.26c.34-.15,.73,.01,.88,.35,.15,.34-.01,.73-.35,.88l-2.93,1.26c-.09,.04-.18,.05-.26,.05Z"/><path d="M226.3,137.9c-.17,0-.35-.07-.48-.2-.26-.26-.25-.69,.01-.95l1.91-1.87c.26-.26,.69-.25,.94,.01,.26,.26,.25,.69-.01,.95l-1.91,1.87c-.13,.13-.3,.19-.47,.19Z"/></g><path d="M208.91,181.93c-.37,0-.67-.3-.67-.67s.3-.67,.67-.67c7.81,0,14.16-6.35,14.16-14.16,0-.37,.3-.67,.67-.67s.67,.3,.67,.67c0,8.54-6.95,15.49-15.49,15.49Z"/><path d="M200.45,203.25c-8.49,0-16.87-2.8-24.22-8.11-.3-.22-.37-.63-.15-.93,.22-.3,.63-.37,.93-.15,7.13,5.14,15.24,7.86,23.44,7.86,.37,0,.67,.3,.67,.67s-.3,.67-.67,.67Z"/><g><path class="cls-1" d="M151.52,185.33c-.25,0-.45-.2-.45-.45v-29.48c0-.25,.2-.45,.45-.45s.45,.2,.45,.45v29.48c0,.25-.2,.45-.45,.45Z"/><circle class="cls-1" cx="151.52" cy="155.04" r="1.78"/><circle class="cls-4" cx="151.67" cy="175.76" r="7.35"/><path class="cls-6" d="M159.02,197.36c-1.97,0-3.56-1.6-3.56-3.56,0-2.09-1.7-3.79-3.79-3.79s-3.79,1.7-3.79,3.79c0,1.97-1.6,3.56-3.56,3.56s-3.56-1.6-3.56-3.56c0-6.02,4.9-10.91,10.91-10.91s10.91,4.9,10.91,10.91c0,1.97-1.6,3.56-3.56,3.56Z"/></g><path class="cls-2" d="M212.7,130l20.76-.29c1.83-.03,2.02-2.75,.2-2.96h-.04l-20.39-2.06c-1.46-.15-2.78,.93-2.93,2.39h0c-.15,1.46,.93,2.78,2.39,2.93Z"/><path class="cls-2" d="M206.08,71.7s-2.83,62.88-71.06,52.85c0,0,11.32-61.63,71.06-52.85Z"/><path class="cls-2" d="M204.11,77.47c-.82,13.8-6.45,41.2-37.27,50.94,39.55-7.18,43.78-49.9,43.78-49.9-2.23-.45-4.4-.79-6.51-1.04Z"/><path class="cls-2" d="M208.91,80.11s29.85,9.01,38.31,64.69c0,0,10.69-69.24-38.31-64.69Z"/><path class="cls-2" d="M206.08,88.55s34.01,2.35,41.14,56.25l-14.08-58.65-29.13-11.73,2.07,14.14Z"/><g><path class="cls-1" d="M249.08,185.33c-.25,0-.45-.2-.45-.45v-29.48c0-.25,.2-.45,.45-.45s.45,.2,.45,.45v29.48c0,.25-.2,.45-.45,.45Z"/><circle class="cls-1" cx="249.08" cy="155.04" r="1.78"/><circle class="cls-4" cx="249.22" cy="175.76" r="7.35"/><path class="cls-6" d="M256.57,197.36c-1.97,0-3.56-1.6-3.56-3.56,0-2.09-1.7-3.79-3.79-3.79s-3.79,1.7-3.79,3.79c0,1.97-1.6,3.56-3.56,3.56s-3.56-1.6-3.56-3.56c0-6.02,4.9-10.91,10.91-10.91s10.91,4.9,10.91,10.91c0,1.97-1.6,3.56-3.56,3.56Z"/></g><path class="cls-5" d="M228.13,218.63c.88,4.03,2.16,42.35-28.13,58.3-30.29-15.95-29.02-54.26-28.13-58.3-11.99,3.07-23.04,8.05-32.68,14.52l-14.66,87.54,.13,.11c14.26,4.87,33.81,8.35,55.99,9.64h0c6.2,.35,12.6,.55,19.16,.56h.07s.08,0,.12,0,.08,0,.12,0h.07c6.55,0,12.96-.2,19.16-.57h0c22.18-1.28,41.73-4.76,55.99-9.63l.13-.11-14.66-87.54c-9.64-6.47-20.69-11.45-32.68-14.52Z"/><g class="cls-8"><path class="cls-5" d="M200,277.47c-.06,0-.13-.01-.19-.04l-43.84-20.98c-3.39-1.62-5.72-4.67-6.39-8.36s.42-7.37,3.01-10.08l18.77-19.69c.14-.14,.36-.18,.53-.09s.27,.29,.23,.49c-.3,1.39-1.16,11.83,2.39,24.54,2.98,10.66,9.85,25.11,25.71,33.37,.22,.11,.3,.38,.19,.59-.08,.16-.24,.25-.4,.25Zm-28.95-57.54l-17.82,18.69h0c-2.39,2.51-3.4,5.9-2.78,9.31,.63,3.41,2.78,6.22,5.9,7.71l36.78,17.6c-11.48-8.55-16.91-20.53-19.48-29.74-2.87-10.29-2.96-19.69-2.6-23.57Zm-18.14,18.38h0Z"/></g><g class="cls-8"><path class="cls-5" d="M200.16,277.47c-.16,0-.32-.09-.4-.25-.11-.22-.02-.48,.19-.59,15.85-8.26,22.73-22.7,25.71-33.37,3.55-12.71,2.69-23.15,2.39-24.54-.04-.2,.05-.39,.23-.49,.18-.09,.39-.06,.53,.09l18.77,19.69c2.59,2.72,3.69,6.39,3.01,10.08-.68,3.69-3.01,6.74-6.39,8.36l-43.84,20.98c-.06,.03-.13,.04-.19,.04Zm28.95-57.54c.36,3.88,.28,13.28-2.6,23.57-2.57,9.2-8,21.19-19.48,29.74l36.78-17.6c3.13-1.5,5.28-4.31,5.9-7.71,.63-3.41-.39-6.8-2.78-9.31h0l-17.82-18.69Z"/></g><path class="cls-5" d="M100.28,301.43c0,7.43,9.23,14.21,24.48,19.41l5.51-34.45-21.59-19.68c-5.4,10.63-8.4,22.37-8.4,34.72Z"/><path class="cls-5" d="M299.55,301.43c0,7.43-9.23,14.21-24.48,19.41l-5.51-34.45,21.59-19.68c5.4,10.63,8.4,22.37,8.4,34.72Z"/><g class="cls-8"><path class="cls-5" d="M124.76,321.28s-.05,0-.07,0c-.24-.04-.41-.27-.37-.51l5.51-34.45c.04-.24,.27-.41,.51-.37,.24,.04,.41,.27,.37,.51l-5.51,34.45c-.03,.22-.22,.37-.44,.37Z"/></g><g class="cls-8"><path class="cls-5" d="M275.07,321.28c-.22,0-.4-.16-.44-.37l-5.51-34.45c-.04-.24,.13-.47,.37-.51,.24-.04,.47,.13,.51,.37l5.51,34.45c.04,.24-.13,.47-.37,.51-.02,0-.05,0-.07,0Z"/></g></g></g></g></svg>