<?xml version="1.0" encoding="UTF-8"?><svg xmlns="http://www.w3.org/2000/svg" viewBox="0 0 400 400"><defs><style>.cls-1{fill:#fff;}.cls-2{isolation:isolate;}.cls-3{fill:#017b71;}.cls-4{fill:#f8ede3;}.cls-5{fill:#210e03;}.cls-6{fill:#edccb9;}.cls-7{opacity:.25;}.cls-8{mix-blend-mode:multiply;}.cls-9{fill:#006057;}</style></defs><g class="cls-2"><g id="Layer_2"><g><path class="cls-6" d="M200,214.86c-71.91,0-130.2,38.73-130.2,86.51,0,16.36,58.29,29.63,130.2,29.63s130.2-13.27,130.2-29.63c0-47.78-58.29-86.51-130.2-86.51Z"/><path class="cls-9" d="M244.92,204.24h-89.84c-9.39,0-15.27,10.16-10.59,18.31l11.78,43.73h74.05l25.17-43.73c4.69-8.14-1.19-18.31-10.59-18.31Z"/><rect class="cls-6" x="168.54" y="157.19" width="62.91" height="83.2"/><path class="cls-5" d="M159.49,69h8.48c45.15,0,81.8,36.65,81.8,81.8h0c0,5.11-4.15,9.25-9.25,9.25h-81.03c-5.11,0-9.25-4.15-9.25-9.25V78.25c0-5.11,4.15-9.25,9.25-9.25Z"/><path class="cls-5" d="M223.73,182.37h-47.45c-14.32,0-26.04-11.72-26.04-26.04v-34.23c0-16.93,13.85-39.46,30.78-39.46h42.82c14.27,0,25.94,20.35,25.94,34.62v39.08c0,14.32-11.72,26.04-26.04,26.04Z"/><g><circle class="cls-6" cx="153.13" cy="145.58" r="14.85"/><circle class="cls-6" cx="246.87" cy="145.58" r="14.85"/><g class="cls-8"><path class="cls-6" d="M161.93,145.2c-.24,0-.47-.13-.59-.36-.03-.06-3.01-5.66-7.82-6.4-2.8-.43-5.73,.86-8.7,3.84-.26,.26-.69,.26-.95,0-.26-.26-.26-.69,0-.95,3.3-3.3,6.61-4.71,9.86-4.21,5.49,.85,8.67,6.85,8.8,7.11,.17,.33,.04,.73-.29,.9-.1,.05-.2,.08-.31,.08Z"/></g><g class="cls-8"><path class="cls-6" d="M238.07,145.21c-.1,0-.21-.02-.31-.08-.33-.17-.46-.57-.29-.9,.13-.25,3.31-6.26,8.8-7.11,3.25-.5,6.57,.92,9.86,4.21,.26,.26,.26,.69,0,.95-.26,.26-.69,.26-.95,0-2.98-2.98-5.91-4.27-8.71-3.84-4.83,.74-7.79,6.34-7.82,6.4-.12,.23-.35,.36-.59,.36Z"/></g></g><g class="cls-8"><polygon class="cls-6" points="168.54 217.4 198.44 187.51 168.54 187.51 168.54 217.4"/></g><ellipse class="cls-6" cx="200" cy="140.59" rx="48.06" ry="62.04"/><g class="cls-7"><path d="M155.65,164.52c7.26,22.38,24.38,38.11,44.35,38.11s37.1-15.73,44.35-38.11h-88.7Z"/></g><path d="M200.45,203c-11.58,0-22.85-5.23-31.73-14.72-.25-.27-.24-.69,.03-.95,.27-.25,.69-.24,.95,.03,8.63,9.22,19.55,14.3,30.75,14.3,.37,0,.67,.3,.67,.67s-.3,.67-.67,.67Z"/><g class="cls-8"><path class="cls-6" d="M206.7,161.17h-6.7c-4.06,0-7.36-2.84-7.36-6.33v-24.47c0-.37,.3-.67,.67-.67s.67,.3,.67,.67v24.47c0,2.75,2.7,4.99,6.03,4.99h6.7c.37,0,.67,.3,.67,.67s-.3,.67-.67,.67Z"/></g><g><circle cx="177.68" cy="140.55" r="4.33"/><circle class="cls-1" cx="175.55" cy="141.12" r="1.11"/><circle class="cls-1" cx="176.65" cy="142.67" r=".42"/></g><rect class="cls-5" x="164.74" y="127.47" width="25.89" height="5.36" rx="2.68" ry="2.68"/><g><circle cx="222.32" cy="140.55" r="4.33"/><circle class="cls-1" cx="220.18" cy="141.12" r="1.11"/><circle class="cls-1" cx="221.28" cy="142.67" r=".42"/></g><rect class="cls-5" x="209.37" y="127.47" width="25.89" height="5.36" rx="2.68" ry="2.68"/><path class="cls-5" d="M219.77,108.66c1.04-.07,2.08-.24,3.12-.54,7.73-2.24,12.18-10.32,9.94-18.05l-6.04,1.75c1.94,6.69-1.14,13.64-7.01,16.84Z"/><path class="cls-5" d="M137.94,84.94c.08,1.29,.3,2.58,.68,3.87,2.78,9.59,12.81,15.12,22.4,12.34l-2.17-7.5c-8.31,2.41-16.93-1.41-20.91-8.71Z"/><path class="cls-5" d="M145.73,76.62c-.49,.92-.89,1.9-1.18,2.94-2.18,7.75,2.34,15.79,10.09,17.97l1.7-6.06c-6.71-1.88-10.99-8.16-10.61-14.84Z"/><path class="cls-5" d="M161.07,105.84c.68,.47,1.42,.87,2.22,1.19,5.93,2.39,12.67-.48,15.06-6.41l-4.64-1.87c-2.07,5.13-7.4,7.97-12.64,7.09Z"/><g class="cls-7"><path d="M200,78.55c-24.52,0-44.75,23.71-47.69,54.33l3.51,3.51c3.21-27.78,21.76-49.09,44.18-49.09s40.5,20.77,44.05,48.04l3.53-3.53c-3.3-30.1-23.35-53.26-47.58-53.26Z"/></g><path class="cls-5" d="M157.15,69h46.42c15.27,0,27.67,12.4,27.67,27.67h0c0,2.96-2.4,5.36-5.36,5.36h-68.74c-2.96,0-5.36-2.4-5.36-5.36v-22.32c0-2.96,2.4-5.36,5.36-5.36Z"/><circle cx="250.66" cy="156.26" r="2.45"/><circle cx="150.68" cy="156.26" r="2.45"/><g><path class="cls-3" d="M168.54,217.4h0Z"/><path class="cls-3" d="M231.51,217.42l-6.5,9.54c-12.01,17.62-38,17.61-49.99-.02l-6.48-9.53c-56.71,9.35-98.74,43.39-98.74,83.96,0,16.36,58.29,29.63,130.2,29.63s130.2-13.27,130.2-29.63c0-40.56-42.01-74.59-98.69-83.95Z"/></g><polygon class="cls-9" points="168.15 218.38 167.8 217.9 166.94 216.58 168.55 216.51 168.63 217.35 169.29 216.92 169.29 216.92 168.63 217.35 168.73 218.28 168.15 218.38"/><path class="cls-9" d="M200.03,249.99c-19.27-.12-30.2-8.23-35.98-15.01-6.27-7.36-7.95-14.61-8.02-14.92l1.74-.39c.02,.07,1.68,7.18,7.69,14.22,5.54,6.47,16.03,14.21,34.56,14.32,18.55-.11,29.05-7.88,34.6-14.38,6-7.03,7.64-14.07,7.66-14.14l1.74,.39c-.07,.3-1.76,7.55-8.04,14.91-5.79,6.78-16.72,14.89-35.95,15.01Z"/><g><g><circle class="cls-9" cx="186.61" cy="247.98" r="2.68"/><path d="M186.61,251.33c-1.85,0-3.35-1.5-3.35-3.35s1.5-3.35,3.35-3.35,3.35,1.5,3.35,3.35-1.5,3.35-3.35,3.35Zm0-5.36c-1.11,0-2.01,.9-2.01,2.01s.9,2.01,2.01,2.01,2.01-.9,2.01-2.01-.9-2.01-2.01-2.01Z"/><rect class="cls-4" x="185.42" y="247.53" width="2.38" height="77.22" rx="1.19" ry="1.19"/></g><g><circle class="cls-9" cx="213.39" cy="247.98" r="2.68"/><path d="M213.39,251.33c-1.85,0-3.35-1.5-3.35-3.35s1.5-3.35,3.35-3.35,3.35,1.5,3.35,3.35-1.5,3.35-3.35,3.35Zm0-5.36c-1.11,0-2.01,.9-2.01,2.01s.9,2.01,2.01,2.01,2.01-.9,2.01-2.01-.9-2.01-2.01-2.01Z"/><rect class="cls-4" x="212.2" y="247.53" width="2.38" height="77.22" rx="1.19" ry="1.19"/></g></g><path d="M200,180.78c-3.98,0-7.95-1.51-10.98-4.54-.26-.26-.26-.69,0-.95,.26-.26,.69-.26,.95,0,5.53,5.53,14.53,5.53,20.06,0,.26-.26,.69-.26,.95,0,.26,.26,.26,.69,0,.95-3.03,3.03-7,4.54-10.98,4.54Z"/><g><path class="cls-5" d="M197.12,163.59h-.86c-1.72,0-13.46,3-16.73,4.22-1.2,.45-2.46,.97-3.22,2.01-.76,1.04-.73,2.75,.38,3.4,.59,.35,1.33,.31,2.01,.27,3.65-.24,7.29-.47,10.94-.71,1.23-.08,3,0,4.61-.25h.24c1.2,0,2.37-.4,3.32-1.14,1.05-.82,1.66-2.07,1.66-3.41v-2.04c0-1.3-1.05-2.35-2.35-2.35Z"/><path class="cls-5" d="M202.88,163.59h.86c1.72,0,13.46,3,16.73,4.22,1.2,.45,2.46,.97,3.22,2.01,.76,1.04,.73,2.75-.38,3.4-.59,.35-1.33,.31-2.01,.27-3.65-.24-7.29-.47-10.94-.71-1.23-.08-3,0-4.61-.25h-.24c-1.2,0-2.37-.4-3.32-1.14-1.05-.82-1.66-2.07-1.66-3.41v-2.04c0-1.3,1.05-2.35,2.35-2.35Z"/></g><circle cx="211.83" cy="179.89" r="1.34"/></g></g></g></svg>