<?xml version="1.0" encoding="UTF-8"?><svg xmlns="http://www.w3.org/2000/svg" xmlns:xlink="http://www.w3.org/1999/xlink" viewBox="0 0 400 400"><defs><style>.cls-1{fill:#fff;}.cls-2{isolation:isolate;}.cls-3,.cls-4{opacity:.35;}.cls-5{fill:#49608e;}.cls-4{mix-blend-mode:screen;}.cls-6{clip-path:url(#clippath);}.cls-7{fill:none;}.cls-8{fill:#314169;}.cls-9{fill:#edccb9;}.cls-10{mix-blend-mode:multiply;}.cls-11{fill:#22304c;}</style><clipPath id="clippath"><path class="cls-7" d="M242.7,218.05c-8.27,19.46-24.29,32.64-42.7,32.64s-34.43-13.19-42.7-32.64c-51.88,11.79-89.19,44.47-89.19,82.93,0,16.58,59.05,30.02,131.89,30.02s131.89-13.44,131.89-30.02c0-38.47-37.31-71.14-89.19-82.93Z"/></clipPath></defs><g class="cls-2"><g id="Layer_2"><g><path class="cls-9" d="M200,213.35c-72.84,0-131.89,39.23-131.89,87.63,0,16.58,59.05,30.02,131.89,30.02s131.89-13.44,131.89-30.02c0-48.4-59.05-87.63-131.89-87.63Z"/><rect class="cls-9" x="168.13" y="154.93" width="63.73" height="84.29"/><g class="cls-10"><polygon class="cls-9" points="168.13 215.93 198.42 185.64 168.13 185.64 168.13 215.93"/></g><g><circle class="cls-9" cx="152.53" cy="143.17" r="15.05"/><circle class="cls-9" cx="247.47" cy="143.17" r="15.05"/><g class="cls-10"><path class="cls-9" d="M161.44,142.79c-.24,0-.48-.13-.6-.36-.03-.06-3.05-5.74-7.92-6.48-2.84-.43-5.8,.87-8.82,3.89-.26,.26-.69,.26-.96,0-.26-.26-.26-.69,0-.96,3.34-3.34,6.7-4.77,9.99-4.27,5.56,.86,8.78,6.94,8.91,7.2,.17,.33,.04,.74-.29,.91-.1,.05-.21,.08-.31,.08Z"/></g><g class="cls-10"><path class="cls-9" d="M238.56,142.79c-.11,0-.21-.02-.31-.08-.33-.17-.46-.58-.29-.91,.13-.26,3.35-6.34,8.91-7.2,3.29-.51,6.65,.93,9.99,4.27,.26,.26,.26,.69,0,.96-.26,.26-.69,.26-.96,0-3.02-3.02-5.99-4.32-8.82-3.89-4.89,.75-7.89,6.43-7.92,6.48-.12,.23-.36,.37-.6,.37Z"/></g></g><ellipse class="cls-9" cx="200" cy="138.11" rx="48.68" ry="62.85"/><g class="cls-10"><path class="cls-9" d="M211.3,158.96h-11.3c-4.11,0-7.46-2.88-7.46-6.41v-29.31c0-.37,.3-.68,.68-.68s.68,.3,.68,.68v29.31c0,2.79,2.74,5.06,6.1,5.06h11.3c.37,0,.68,.3,.68,.68s-.3,.68-.68,.68Z"/></g><path class="cls-8" d="M242.7,218.05c-8.27,19.46-24.29,32.64-42.7,32.64s-34.43-13.19-42.7-32.64c-51.88,11.79-89.19,44.47-89.19,82.93,0,16.58,59.05,30.02,131.89,30.02s131.89-13.44,131.89-30.02c0-38.47-37.31-71.14-89.19-82.93Z"/><path d="M232.74,72.95c-.79-.69-1.66-1.31-2.62-1.84-7.14-3.93-16.12-1.33-20.05,5.81l5.58,3.07c3.4-6.18,10.59-8.96,17.09-7.04Z"/><path d="M185.1,62.21c-.6,.38-1.16,.83-1.68,1.35-3.88,3.88-3.88,10.18,0,14.07l3.04-3.04c-3.36-3.36-3.81-8.53-1.35-12.38Z"/><path d="M206.74,58.4c-.41,.67-.89,1.3-1.46,1.88-.52,.52-1.09,.97-1.68,1.35,.76-1.19,1.24-2.51,1.45-3.87-1.59-.5-3.29-.76-5.04-.76-9.36,0-16.96,7.59-16.96,16.96s7.59,16.96,16.96,16.96,16.96-7.59,16.96-16.96c0-6.97-4.2-12.95-10.21-15.56Z"/><path d="M224.59,64.92c-.69-.15-1.41-.24-2.15-.24-5.49,0-9.95,4.45-9.95,9.95h4.3c0-4.76,3.34-8.73,7.8-9.71Z"/><path d="M154.24,137.94c1.55,0,2.8-1.23,2.86-2.78,1.19-29.25,19.94-52.5,42.89-52.5s41.7,23.25,42.89,52.5c.06,1.55,1.32,2.78,2.86,2.78h0c1.62,0,2.93-1.34,2.87-2.96-1.26-33.25-8.38-60.34-48.62-59.71-40.69,.63-47.36,26.46-48.62,59.71-.06,1.62,1.25,2.96,2.87,2.96h0Z"/><path d="M200,93.23c22.64,0,41.64,8.84,46.8,20.75-5.16-22.58-24.15-39.34-46.8-39.34s-41.64,16.76-46.8,39.34c5.16-11.91,24.15-20.75,46.8-20.75Z"/><g class="cls-6"><rect class="cls-11" x="68.43" y="224.75" width="29.39" height="130.22"/><rect class="cls-5" x="106.86" y="213.44" width="23.96" height="141.52"/><path class="cls-1" d="M106.86,355.87h-9.04c-.5,0-.9-.4-.9-.9V224.75c0-.5,.4-.9,.9-.9h9.04c.5,0,.9,.4,.9,.9v130.22c0,.5-.4,.9-.9,.9Zm-8.14-1.81h7.23V225.65h-7.23v128.41Z"/><rect class="cls-11" x="160.66" y="218.42" width="29.39" height="130.22"/><rect class="cls-5" x="199.1" y="207.11" width="23.96" height="141.52"/><path class="cls-1" d="M199.1,349.54h-9.04c-.5,0-.9-.4-.9-.9V218.42c0-.5,.4-.9,.9-.9h9.04c.5,0,.9,.4,.9,.9v130.22c0,.5-.4,.9-.9,.9Zm-8.14-1.81h7.23V219.32h-7.23v128.41Z"/><rect class="cls-11" x="248.38" y="217.51" width="29.39" height="130.22"/><rect class="cls-5" x="286.81" y="206.21" width="23.96" height="141.52"/><path class="cls-1" d="M286.81,348.63h-9.04c-.5,0-.9-.4-.9-.9V217.51c0-.5,.4-.9,.9-.9h9.04c.5,0,.9,.4,.9,.9v130.22c0,.5-.4,.9-.9,.9Zm-8.14-1.81h7.23V218.42h-7.23v128.41Z"/><path class="cls-1" d="M311.68,344.56c-.5,0-.9-.4-.9-.9V213.44c0-.5,.4-.9,.9-.9s.9,.4,.9,.9v130.22c0,.5-.4,.9-.9,.9Z"/></g><path class="cls-11" d="M200,258.93c22.26,0,41.72-15.4,52.36-38.39-3.16-.91-6.38-1.74-9.66-2.48-8.27,19.46-24.29,32.64-42.7,32.64s-34.43-13.19-42.7-32.64c-3.28,.75-6.5,1.58-9.66,2.48,10.64,22.99,30.11,38.39,52.36,38.39Z"/><path class="cls-1" d="M200,259.83c-10.94,0-21.68-3.72-31.08-10.75-9.08-6.8-16.73-16.54-22.11-28.16-.21-.45-.01-.99,.44-1.2,.45-.21,.99-.01,1.2,.44,5.25,11.35,12.71,20.85,21.55,27.47,9.08,6.8,19.45,10.39,30,10.39s20.92-3.59,30-10.39c8.84-6.62,16.29-16.12,21.55-27.47,.21-.45,.75-.65,1.2-.44,.45,.21,.65,.75,.44,1.2-5.38,11.62-13.02,21.36-22.11,28.16-9.4,7.04-20.14,10.75-31.08,10.75Z"/><path d="M231.65,137.18c-.12,0-.25-.03-.36-.1-8.21-5.09-15.68-.22-15.99-.01-.31,.21-.73,.12-.94-.19-.21-.31-.13-.73,.18-.94,.08-.06,8.49-5.58,17.46-.01,.32,.2,.42,.62,.22,.93-.13,.21-.35,.32-.58,.32Z"/><g><g><circle cx="176.62" cy="138.07" r="4.39"/><circle class="cls-1" cx="174.46" cy="138.65" r="1.12"/><circle class="cls-1" cx="175.57" cy="140.22" r=".43"/></g><g><circle cx="223.38" cy="138.07" r="4.39"/><circle class="cls-1" cx="221.22" cy="138.65" r="1.12"/><circle class="cls-1" cx="222.33" cy="140.22" r=".43"/></g><path d="M188.57,121.74l-.61-3.53c-.23-1.34-1.51-2.23-2.84-2l-18.81,3.27c-1.34,.23-2.23,1.51-2,2.84h0c.2,1.17,1.21,2.02,2.39,2.04l19.42,.26c1.54,.02,2.72-1.36,2.46-2.88Z"/><path d="M212.23,121.74l.61-3.53c.23-1.34,1.51-2.23,2.84-2l18.81,3.27c1.34,.23,2.23,1.51,2,2.84h0c-.2,1.17-1.21,2.02-2.39,2.04l-19.42,.26c-1.54,.02-2.72-1.36-2.46-2.88Z"/></g><g><path d="M195.07,160.77h-7.81c-4.3,0-7.79,3.49-7.79,7.79v16.17h7.69v-13.44c0-1.57,1.27-2.84,2.84-2.84h4.17c2.37,0,4.3-1.92,4.3-4.3h0c0-1.87-1.52-3.39-3.39-3.39Z"/><path d="M204.93,160.77h7.81c4.3,0,7.79,3.49,7.79,7.79v16.17h-7.69v-13.44c0-1.57-1.27-2.84-2.84-2.84h-4.17c-2.37,0-4.3-1.92-4.3-4.3h0c0-1.87,1.52-3.39,3.39-3.39Z"/></g><path d="M244.71,163.02c-1.98,3.24-15.39,23.39-44.1,24.65-29.55-.7-43.31-21.36-45.31-24.65,7.47,22.32,24.68,37.94,44.71,37.94s37.24-15.62,44.71-37.94Z"/><path d="M200,177c-3.5,0-6.79-1.36-9.27-3.84-.35-.35-.35-.93,0-1.28,.35-.35,.93-.35,1.28,0,2.13,2.13,4.97,3.31,7.99,3.31s5.86-1.18,7.99-3.31c.35-.35,.93-.35,1.28,0,.35,.35,.35,.93,0,1.28-2.48,2.48-5.77,3.84-9.27,3.84Z"/><path d="M185.08,137.18c-.12,0-.25-.03-.36-.1-8.21-5.09-15.68-.22-15.99-.01-.31,.21-.73,.12-.94-.19-.21-.31-.13-.73,.18-.94,.08-.06,8.49-5.58,17.46-.01,.32,.2,.42,.62,.22,.93-.13,.21-.35,.32-.58,.32Z"/><g><g><g class="cls-3"><rect class="cls-1" x="160.03" y="127.08" width="31.23" height="23.51" rx="11.76" ry="11.76"/></g><g class="cls-4"><path class="cls-1" d="M165.07,127.08c-2.98,0-5.43,2.44-5.43,5.43v12.66c0,.79,.17,1.54,.48,2.22l20.3-20.3h-15.36Z"/></g><path d="M185.83,151.5h-20.37c-3.49,0-6.33-2.84-6.33-6.33v-12.66c0-3.49,2.84-6.33,6.33-6.33h20.37c3.49,0,6.33,2.84,6.33,6.33v12.66c0,3.49-2.84,6.33-6.33,6.33Zm-20.37-23.51c-2.49,0-4.52,2.03-4.52,4.52v12.66c0,2.49,2.03,4.52,4.52,4.52h20.37c2.49,0,4.52-2.03,4.52-4.52v-12.66c0-2.49-2.03-4.52-4.52-4.52h-20.37Z"/><g><polygon points="172.96 127.08 157.2 127.08 160.03 146.19 159.66 130.39 161.5 127.08 172.96 127.08"/><path d="M160.03,147.09c-.44,0-.83-.33-.89-.77l-2.83-19.1c-.04-.26,.04-.52,.21-.72s.42-.31,.68-.31h15.76c.5,0,.9,.4,.9,.9s-.4,.9-.9,.9h-10.93l-1.46,2.63,.36,15.55c.01,.48-.35,.88-.83,.92-.03,0-.05,0-.08,0Zm-1.78-19.1l.54,3.64-.03-1.21c0-.16,.04-.32,.11-.46l1.09-1.96h-1.71Z"/></g></g><g><g class="cls-3"><rect class="cls-1" x="208.74" y="127.08" width="31.23" height="23.51" rx="11.76" ry="11.76" transform="translate(448.71 277.68) rotate(180)"/></g><g class="cls-4"><polygon class="cls-1" points="234.15 150.6 240.36 144.39 240.36 133.52 223.28 150.6 234.15 150.6"/></g><path d="M234.54,151.5h-20.37c-3.49,0-6.33-2.84-6.33-6.33v-12.66c0-3.49,2.84-6.33,6.33-6.33h20.37c3.49,0,6.33,2.84,6.33,6.33v12.66c0,3.49-2.84,6.33-6.33,6.33Zm-20.37-23.51c-2.49,0-4.52,2.03-4.52,4.52v12.66c0,2.49,2.03,4.52,4.52,4.52h20.37c2.49,0,4.52-2.03,4.52-4.52v-12.66c0-2.49-2.03-4.52-4.52-4.52h-20.37Z"/><g><polygon points="227.04 127.08 242.8 127.08 239.97 146.19 240.34 130.39 238.5 127.08 227.04 127.08"/><path d="M239.97,147.09s-.05,0-.08,0c-.48-.04-.84-.44-.83-.92l.36-15.55-1.46-2.63h-10.93c-.5,0-.9-.4-.9-.9s.4-.9,.9-.9h15.76c.26,0,.51,.11,.68,.31s.25,.46,.21,.72l-2.83,19.1c-.07,.45-.45,.77-.89,.77Zm.07-19.1l1.09,1.96c.08,.14,.12,.3,.11,.46l-.03,1.21,.54-3.63h-1.71Z"/></g></g><rect x="191.12" y="129.8" width="17.63" height="3.62"/></g><path d="M200,200.96c20.03,0,37.24-15.62,44.71-37.94h0c-47.16,47.16-89.42,0-89.42,0h0c7.47,22.32,24.68,37.94,44.71,37.94Z"/><rect x="196.16" y="179.98" width="7.69" height="13.11" rx="3.84" ry="3.84"/></g></g></g></svg>