<?xml version="1.0" encoding="UTF-8"?><svg xmlns="http://www.w3.org/2000/svg" xmlns:xlink="http://www.w3.org/1999/xlink" viewBox="0 0 400 400"><defs><style>.cls-1{fill:#fff;}.cls-2{fill:#edca6c;}.cls-3{fill:#d99ff4;}.cls-4{isolation:isolate;}.cls-5,.cls-6{opacity:.35;}.cls-7{fill:#f4d07d;}.cls-6{mix-blend-mode:screen;}.cls-8{opacity:.5;}.cls-8,.cls-9{mix-blend-mode:multiply;}.cls-10{clip-path:url(#clippath);}.cls-11{fill:none;}.cls-12{fill:#ff9ca1;}.cls-13{fill:#ed7782;}.cls-14{fill:#8c5922;}.cls-15{fill:#edccb9;}</style><clipPath id="clippath"><path class="cls-11" d="M200,223.5c-51.16,0-92.64,35.91-92.64,80.21,0,15.17,41.48,27.47,92.64,27.47s92.64-12.3,92.64-27.47c0-44.3-41.48-80.21-92.64-80.21Z"/></clipPath></defs><g class="cls-4"><g id="Layer_2"><g><path class="cls-2" d="M241.65,285.25h-83.31c-2.92,0-5.32-2.23-5.32-4.97V136.27c0-26.86,14.67-48.83,43.43-48.83h0c42.45-.83,50.52,21.23,50.52,47.18v145.67c0,2.73-2.39,4.97-5.32,4.97Z"/><g class="cls-8"><path class="cls-2" d="M246.97,142.36c-6-26.16-24.76-45.24-46.97-45.24s-40.97,19.08-46.97,45.24v35.99c6,26.16,24.76,45.24,46.97,45.24s40.97-19.08,46.97-45.24v-35.99Z"/></g><path class="cls-2" d="M233.08,84.88c-.8-.7-1.68-1.32-2.64-1.86-7.19-3.96-16.23-1.34-20.2,5.85l5.62,3.1c3.43-6.23,10.67-9.02,17.21-7.09Z"/><path class="cls-2" d="M185.1,74.05c-.6,.38-1.17,.84-1.7,1.36-3.91,3.91-3.91,10.26,0,14.17l3.06-3.06c-3.39-3.39-3.84-8.6-1.36-12.47Z"/><path class="cls-2" d="M206.9,70.22c-.41,.67-.89,1.31-1.47,1.89-.53,.53-1.1,.98-1.7,1.36,.77-1.2,1.25-2.53,1.46-3.9-1.6-.5-3.31-.77-5.08-.77-9.43,0-17.08,7.65-17.08,17.08s7.65,17.08,17.08,17.08,17.08-7.65,17.08-17.08c0-7.02-4.23-13.04-10.29-15.67Z"/><path class="cls-2" d="M224.87,76.79c-.7-.15-1.42-.24-2.16-.24-5.53,0-10.02,4.49-10.02,10.02h4.33c0-4.79,3.36-8.79,7.86-9.78Z"/><path class="cls-7" d="M200.92,87.43h0c29.07,0,52.67,23.6,52.67,52.67v15.45c0,3.06-2.48,5.54-5.54,5.54h-96.1c-3.06,0-5.54-2.48-5.54-5.54v-13.6c0-30.09,24.43-54.52,54.52-54.52Z"/><g><circle class="cls-15" cx="156.67" cy="159.26" r="12.54"/><circle class="cls-15" cx="243.33" cy="159.26" r="12.54"/><g class="cls-9"><path class="cls-15" d="M164.1,159.01c-.22,0-.44-.12-.55-.33-.02-.05-2.53-4.76-6.56-5.37-2.34-.36-4.8,.72-7.3,3.22-.24,.24-.64,.24-.88,0s-.24-.64,0-.88c2.8-2.8,5.61-4,8.37-3.57,4.66,.72,7.36,5.81,7.47,6.03,.16,.3,.04,.68-.26,.84-.09,.05-.19,.07-.29,.07Z"/></g><g class="cls-9"><path class="cls-15" d="M235.9,159.01c-.1,0-.19-.02-.29-.07-.3-.16-.42-.53-.26-.84,.11-.22,2.81-5.31,7.47-6.03,2.76-.43,5.58,.78,8.37,3.57,.24,.24,.24,.64,0,.88s-.64,.24-.88,0c-2.5-2.5-4.95-3.58-7.3-3.22-4.04,.62-6.54,5.33-6.56,5.37-.11,.21-.33,.33-.55,.33Z"/></g></g><g><rect class="cls-15" x="178.17" y="170.03" width="43.65" height="77.15"/><g class="cls-9"><polygon class="cls-15" points="178.17 225.86 198.92 198.14 178.17 198.14 178.17 225.86"/></g></g><ellipse class="cls-15" cx="200" cy="154.64" rx="44.56" ry="57.52"/><g class="cls-9"><path class="cls-15" d="M206.69,172.48h-8.36c-3.11,0-5.64-2.53-5.64-5.64v-21.68c0-.34,.28-.62,.62-.62s.62,.28,.62,.62v21.68c0,2.42,1.97,4.4,4.39,4.4h8.36c.34,0,.62,.28,.62,.62s-.28,.62-.62,.62Z"/></g><path class="cls-12" d="M150.55,83.95h0Z"/><g><circle cx="179.29" cy="154.19" r="4.01"/><circle class="cls-1" cx="177.31" cy="154.72" r="1.03"/><circle class="cls-1" cx="178.33" cy="156.15" r=".39"/></g><g><path d="M187.2,153.48c-.11,0-.22-.03-.33-.09-7.52-4.66-14.35-.2-14.64-.01-.29,.19-.67,.11-.86-.17-.19-.28-.12-.67,.17-.86,.08-.05,7.77-5.1,15.99-.01,.29,.18,.38,.56,.2,.85-.12,.19-.32,.29-.53,.29Z"/><path d="M174.09,152.38c-.08,0-.17-.02-.25-.05l-2.72-1.17c-.31-.14-.46-.5-.32-.82,.14-.31,.5-.46,.82-.32l2.72,1.17c.31,.14,.46,.5,.32,.82-.1,.23-.33,.38-.57,.38Z"/><path d="M175.86,151.79c-.16,0-.31-.06-.43-.18l-1.78-1.74c-.24-.24-.25-.63,0-.88,.24-.25,.63-.25,.88,0l1.78,1.74c.24,.24,.25,.63,0,.88-.12,.12-.28,.19-.44,.19Z"/></g><g><circle cx="221.01" cy="154.19" r="4.01"/><circle class="cls-1" cx="219.03" cy="154.72" r="1.03"/><circle class="cls-1" cx="220.05" cy="156.15" r=".39"/></g><g><path d="M213.1,153.48c-.21,0-.41-.1-.53-.29-.18-.29-.09-.67,.2-.85,8.21-5.09,15.91-.04,15.99,.01,.28,.19,.36,.58,.17,.86-.19,.28-.58,.36-.86,.17h0c-.29-.19-7.12-4.65-14.64,.01-.1,.06-.21,.09-.33,.09Z"/><path d="M226.21,152.38c-.24,0-.47-.14-.57-.38-.14-.31,0-.68,.32-.82l2.72-1.17c.32-.13,.68,0,.82,.32,.14,.31,0,.68-.32,.82l-2.72,1.17c-.08,.03-.16,.05-.25,.05Z"/><path d="M224.43,151.79c-.16,0-.32-.06-.44-.19-.24-.24-.24-.64,0-.88l1.78-1.74c.24-.24,.64-.24,.88,0,.24,.24,.24,.64,0,.88l-1.78,1.74c-.12,.12-.28,.18-.43,.18Z"/></g><path d="M208.28,192.7c-.34,0-.62-.28-.62-.62s.28-.62,.62-.62c7.25,0,13.15-5.9,13.15-13.15,0-.34,.28-.62,.62-.62s.62,.28,.62,.62c0,7.94-6.46,14.39-14.39,14.39Z"/><path d="M200.41,212.5c-7.89,0-15.67-2.61-22.51-7.53-.28-.2-.34-.59-.14-.87,.2-.28,.59-.34,.87-.14,6.62,4.78,14.15,7.3,21.78,7.3,.34,0,.62,.28,.62,.62s-.28,.62-.62,.62Z"/><path class="cls-7" d="M200.1,110.08c22.81,0,41.94,11.17,47.14,26.23-5.2-28.55-24.33-47.66-47.14-47.66s-41.94,19.11-47.14,47.66c5.2-15.06,24.33-26.23,47.14-26.23Z"/><path class="cls-7" d="M154.01,156.13c1.56,0,2.82-1.24,2.89-2.8,1.2-29.47,20.08-52.88,43.21-52.88s42.01,23.42,43.21,52.88c.06,1.56,1.33,2.8,2.89,2.8h0c1.63,0,2.95-1.35,2.89-2.98-1.27-33.5-8.44-60.79-48.98-60.15-40.99,.64-47.71,26.66-48.98,60.15-.06,1.63,1.26,2.98,2.89,2.98h0Z"/><circle class="cls-1" cx="149.1" cy="165.24" r="1.24"/><circle class="cls-1" cx="152.82" cy="167.31" r="1.24"/><circle class="cls-1" cx="250.49" cy="165.24" r="1.24"/><circle class="cls-1" cx="246.76" cy="167.31" r="1.24"/><path d="M146.41,162.13c-2.28,0-4.14-1.86-4.14-4.14,0-1.67,.99-3.16,2.53-3.81,.21-.09,.45,0,.54,.22,.09,.21,0,.45-.22,.54-1.23,.52-2.02,1.72-2.02,3.05,0,1.83,1.49,3.31,3.31,3.31s3.31-1.49,3.31-3.31c0-.23,.19-.41,.41-.41s.41,.19,.41,.41c0,2.28-1.86,4.14-4.14,4.14Z"/><polyline class="cls-15" points="205.17 118.59 200.61 98.6 195.04 118.59"/><path class="cls-15" d="M200,223.5c-51.16,0-92.64,35.91-92.64,80.21,0,15.17,41.48,27.47,92.64,27.47s92.64-12.3,92.64-27.47c0-44.3-41.48-80.21-92.64-80.21Z"/><path class="cls-3" d="M226.14,226.79c.82,3.75,2.01,39.34-26.14,54.16-28.14-14.82-26.96-50.41-26.14-54.16-11.14,2.85-21.4,7.48-30.36,13.49l-13.62,81.33,.12,.1c13.25,4.53,31.41,7.75,52.02,8.96h0c5.76,.33,11.71,.51,17.8,.52h.06s.08,0,.11,0,.08,0,.11,0h.06c6.09,0,12.04-.19,17.8-.53h0c20.61-1.19,38.77-4.42,52.02-8.95l.12-.1-13.62-81.33c-8.96-6.01-19.22-10.64-30.36-13.49Z"/><g class="cls-9"><path class="cls-3" d="M200,281.46c-.06,0-.12-.01-.18-.04l-40.73-19.49c-3.15-1.51-5.31-4.34-5.94-7.76-.63-3.43,.39-6.84,2.8-9.37l17.44-18.29c.13-.13,.33-.17,.49-.08,.16,.09,.25,.27,.21,.45-.28,1.29-1.08,10.99,2.22,22.8,2.77,9.91,9.15,23.32,23.88,31,.2,.1,.28,.35,.18,.55-.07,.14-.22,.23-.37,.23Zm-43.45-36.09c-2.22,2.33-3.16,5.48-2.58,8.65,.58,3.17,2.58,5.78,5.48,7.17l34.17,16.35c-10.66-7.94-15.71-19.08-18.1-27.63-2.67-9.56-2.75-18.29-2.41-21.9l-16.56,17.36Z"/></g><g class="cls-9"><path class="cls-3" d="M200.15,281.46c-.15,0-.3-.08-.37-.23-.1-.2-.02-.45,.18-.55,14.73-7.67,21.12-21.09,23.88-31,3.3-11.81,2.5-21.51,2.22-22.8-.04-.18,.05-.37,.21-.45,.16-.09,.37-.05,.49,.08l17.44,18.29h0c2.41,2.52,3.43,5.94,2.8,9.37-.63,3.43-2.79,6.26-5.94,7.76l-40.73,19.49c-.06,.03-.12,.04-.18,.04Zm26.9-53.45c.34,3.6,.26,12.33-2.41,21.9-2.39,8.55-7.44,19.68-18.1,27.63l34.17-16.35c2.9-1.39,4.9-4,5.48-7.17,.58-3.17-.36-6.32-2.58-8.65l-16.56-17.36Z"/></g><g class="cls-10"><g><circle class="cls-3" cx="142.86" cy="241.15" r="3.47"/><circle class="cls-3" cx="141.85" cy="248.01" r="3.47"/><circle class="cls-3" cx="144.87" cy="227.43" r="3.47"/><circle class="cls-3" cx="143.86" cy="234.29" r="3.47"/><circle class="cls-3" cx="138.84" cy="268.59" r="3.47"/><circle class="cls-3" cx="137.84" cy="275.45" r="3.47"/><circle class="cls-3" cx="140.85" cy="254.87" r="3.47"/><circle class="cls-3" cx="139.85" cy="261.73" r="3.47"/><circle class="cls-3" cx="134.82" cy="296.04" r="3.47"/><circle class="cls-3" cx="133.82" cy="302.9" r="3.47"/><circle class="cls-3" cx="136.83" cy="282.32" r="3.47"/><circle class="cls-3" cx="135.83" cy="289.18" r="3.47"/><circle class="cls-3" cx="130.81" cy="323.48" r="3.47"/><circle class="cls-3" cx="129.8" cy="330.34" r="3.47"/><circle class="cls-3" cx="132.81" cy="309.76" r="3.47"/><circle class="cls-3" cx="131.81" cy="316.62" r="3.47"/></g><g><circle class="cls-3" cx="257.21" cy="241.15" r="3.47"/><circle class="cls-3" cx="258.21" cy="248.01" r="3.47"/><circle class="cls-3" cx="255.2" cy="227.43" r="3.47"/><circle class="cls-3" cx="256.2" cy="234.29" r="3.47"/><circle class="cls-3" cx="261.22" cy="268.59" r="3.47"/><circle class="cls-3" cx="262.23" cy="275.45" r="3.47"/><circle class="cls-3" cx="259.21" cy="254.87" r="3.47"/><circle class="cls-3" cx="260.22" cy="261.73" r="3.47"/><circle class="cls-3" cx="265.24" cy="296.04" r="3.47"/><circle class="cls-3" cx="266.25" cy="302.9" r="3.47"/><circle class="cls-3" cx="263.23" cy="282.32" r="3.47"/><circle class="cls-3" cx="264.24" cy="289.18" r="3.47"/><circle class="cls-3" cx="269.26" cy="323.48" r="3.47"/><circle class="cls-3" cx="270.26" cy="330.34" r="3.47"/><circle class="cls-3" cx="267.25" cy="309.76" r="3.47"/><circle class="cls-3" cx="268.25" cy="316.62" r="3.47"/></g></g><g class="cls-9"><path class="cls-3" d="M200.15,310.86c-.23,0-.41-.19-.41-.41v-29.4c0-.23,.19-.41,.41-.41s.41,.19,.41,.41v29.4c0,.23-.19,.41-.41,.41Z"/></g><path class="cls-1" d="M207.66,291.87c-2.17,0-3.93-1.76-3.93-3.93s1.76-3.93,3.93-3.93,3.93,1.76,3.93,3.93-1.76,3.93-3.93,3.93Zm0-7.04c-1.71,0-3.1,1.39-3.1,3.1s1.39,3.1,3.1,3.1,3.1-1.39,3.1-3.1-1.39-3.1-3.1-3.1Z"/><path class="cls-1" d="M207.66,306.77c-2.17,0-3.93-1.76-3.93-3.93s1.76-3.93,3.93-3.93,3.93,1.76,3.93,3.93-1.76,3.93-3.93,3.93Zm0-7.04c-1.71,0-3.1,1.39-3.1,3.1s1.39,3.1,3.1,3.1,3.1-1.39,3.1-3.1-1.39-3.1-3.1-3.1Z"/><path class="cls-14" d="M188.5,144.46l-19.29-.27c-1.7-.02-1.87-2.55-.19-2.75h.04l18.94-1.92c1.36-.14,2.58,.86,2.72,2.22h0c.14,1.36-.86,2.58-2.22,2.72Z"/><path class="cls-14" d="M211.8,144.46l19.29-.27c1.7-.02,1.87-2.55,.19-2.75h-.04l-18.94-1.92c-1.36-.14-2.58,.86-2.72,2.22h0c-.14,1.36,.86,2.58,2.22,2.72Z"/><g><rect class="cls-13" x="191.52" y="147.44" width="16.14" height="2.48"/><rect class="cls-13" x="147.23" y="147.44" width="16.14" height="2.48" rx="1.24" ry="1.24"/><rect class="cls-13" x="191.41" y="147.44" width="17.17" height="2.48" transform="translate(400 297.37) rotate(-180)"/><rect class="cls-13" x="236.63" y="147.44" width="16.14" height="2.48" rx="1.24" ry="1.24" transform="translate(489.39 297.37) rotate(-180)"/><g><g class="cls-5"><rect class="cls-1" x="208.36" y="144.54" width="28.58" height="21.52" rx="10.76" ry="10.76" transform="translate(445.29 310.61) rotate(-180)"/></g><g class="cls-6"><polygon class="cls-1" points="231.25 166.06 236.94 160.38 236.94 150.43 221.3 166.06 231.25 166.06"/></g><path class="cls-13" d="M236.94,161.93c-.46,0-.83-.37-.83-.83v-11.59c0-2.28-1.86-4.14-4.14-4.14h-18.65c-2.28,0-4.14,1.86-4.14,4.14v3.31c0,.46-.37,.83-.83,.83s-.83-.37-.83-.83v-3.31c0-3.19,2.6-5.79,5.79-5.79h18.65c3.19,0,5.79,2.6,5.79,5.79v11.59c0,.46-.37,.83-.83,.83Z"/><g><polygon class="cls-13" points="225.1 144.54 239.53 144.54 236.94 162.03 237.27 147.57 235.59 144.54 225.1 144.54"/><path class="cls-13" d="M236.94,162.86s-.05,0-.07,0c-.44-.04-.77-.41-.76-.84l.33-14.23-1.34-2.4h-10.01c-.46,0-.83-.37-.83-.83s.37-.83,.83-.83h14.43c.24,0,.47,.1,.63,.29s.23,.42,.19,.66l-2.59,17.49c-.06,.41-.41,.71-.82,.71Zm.06-17.49l1,1.8c.07,.13,.11,.27,.1,.42l-.03,1.11,.49-3.33h-1.57Z"/></g></g><g><g class="cls-5"><rect class="cls-1" x="163.06" y="144.54" width="28.58" height="21.52" rx="10.76" ry="10.76"/></g><g class="cls-6"><path class="cls-1" d="M168.03,144.54c-2.73,0-4.97,2.23-4.97,4.97v11.59c0,.72,.16,1.41,.44,2.03l18.58-18.58h-14.06Z"/></g><path class="cls-13" d="M163.06,161.93c-.46,0-.83-.37-.83-.83v-11.59c0-3.19,2.6-5.79,5.79-5.79h18.65c3.19,0,5.79,2.6,5.79,5.79v3.31c0,.46-.37,.83-.83,.83s-.83-.37-.83-.83v-3.31c0-2.28-1.86-4.14-4.14-4.14h-18.65c-2.28,0-4.14,1.86-4.14,4.14v11.59c0,.46-.37,.83-.83,.83Z"/><g><polygon class="cls-13" points="174.9 144.54 160.47 144.54 163.06 162.03 162.73 147.57 164.41 144.54 174.9 144.54"/><path class="cls-13" d="M163.06,162.86c-.41,0-.76-.3-.82-.71l-2.59-17.49c-.04-.24,.03-.48,.19-.66s.39-.29,.63-.29h14.43c.46,0,.83,.37,.83,.83s-.37,.83-.83,.83h-10.01l-1.34,2.4,.33,14.23c.01,.44-.32,.81-.76,.84-.02,0-.05,0-.07,0Zm-1.63-17.49l.49,3.33-.03-1.11c0-.15,.03-.29,.1-.42l1-1.8h-1.57Z"/></g></g></g></g></g></g></svg>