<?xml version="1.0" encoding="UTF-8"?><svg xmlns="http://www.w3.org/2000/svg" viewBox="0 0 400 400"><defs><style>.cls-1{fill:#fff;}.cls-2{fill:#e07c86;}.cls-3{isolation:isolate;}.cls-4{fill:#97c0e5;}.cls-5{fill:#a67c52;}.cls-6{opacity:.5;}.cls-6,.cls-7{mix-blend-mode:multiply;}.cls-8{fill:#f8ede3;}.cls-9{fill:#ff9ca1;}.cls-10{opacity:.25;}</style></defs><g class="cls-3"><g id="Layer_2"><g><g><circle class="cls-5" cx="154.24" cy="139.56" r="15.23"/><circle class="cls-5" cx="245.76" cy="139.56" r="15.23"/><g class="cls-7"><path class="cls-5" d="M163.26,139.18c-.25,0-.49-.13-.61-.37-.03-.06-3.08-5.8-8.02-6.56-2.87-.44-5.87,.88-8.92,3.93-.27,.27-.7,.27-.97,0-.27-.27-.27-.7,0-.97,3.38-3.38,6.78-4.83,10.11-4.32,5.63,.87,8.88,7.02,9.02,7.28,.17,.34,.04,.75-.29,.92-.1,.05-.21,.08-.32,.08Z"/></g><g class="cls-7"><path class="cls-5" d="M236.74,139.18c-.11,0-.21-.03-.32-.08-.34-.17-.47-.59-.29-.93,.14-.26,3.39-6.42,9.02-7.28,3.33-.51,6.73,.94,10.11,4.32,.27,.27,.27,.7,0,.97-.27,.27-.7,.27-.97,0-3.05-3.05-6.06-4.37-8.93-3.93-4.95,.76-7.98,6.5-8.01,6.56-.12,.24-.36,.37-.61,.37Z"/></g></g><path class="cls-2" d="M246.05,199.7h-92.1c-9.63,0-15.66,10.42-10.85,18.77l12.08,44.83h75.92l25.8-44.83c4.8-8.35-1.22-18.77-10.85-18.77Z"/><path class="cls-5" d="M200,210.58c-73.71,0-133.47,39.7-133.47,88.68,0,16.78,59.76,30.38,133.47,30.38s133.47-13.6,133.47-30.38c0-48.98-59.76-88.68-133.47-88.68Z"/><rect class="cls-5" x="167.75" y="151.46" width="64.5" height="85.3"/><g class="cls-6"><polygon class="cls-5" points="167.75 213.19 198.4 182.54 167.75 182.54 167.75 213.19"/></g><ellipse class="cls-5" cx="200" cy="134.44" rx="49.27" ry="63.6"/><g class="cls-10"><path d="M154.53,158.97c7.44,22.95,24.99,39.07,45.47,39.07s38.03-16.12,45.47-39.07h-90.94Z"/></g><path d="M200,175.65c-4.08,0-8.15-1.55-11.25-4.65-.27-.27-.27-.7,0-.97,.27-.27,.7-.27,.97,0,5.67,5.67,14.9,5.67,20.57,0,.27-.27,.7-.27,.97,0,.27,.27,.27,.7,0,.97-3.1,3.1-7.18,4.65-11.25,4.65Z"/><path d="M200.46,198.42c-11.87,0-23.42-5.36-32.53-15.09-.26-.28-.24-.71,.03-.97,.28-.26,.71-.24,.97,.03,8.85,9.45,20.04,14.66,31.53,14.66,.38,0,.69,.31,.69,.69s-.31,.69-.69,.69Z"/><g class="cls-7"><path class="cls-5" d="M211.44,152.34h-11.44c-4.16,0-7.55-2.91-7.55-6.49v-25.08c0-.38,.31-.69,.69-.69s.69,.31,.69,.69v25.08c0,2.82,2.77,5.12,6.18,5.12h11.44c.38,0,.69,.31,.69,.69s-.31,.69-.69,.69Z"/></g><g class="cls-10"><path d="M200,70.84c-25.14,0-45.88,24.3-48.89,55.7l3.6,3.6c3.29-28.48,22.31-50.33,45.29-50.33s41.51,21.3,45.15,49.25l3.62-3.62c-3.39-30.86-23.93-54.6-48.77-54.6Z"/></g><path d="M166.65,91.46h66.7c1.36,0,2.14-1.56,1.32-2.65-8.81-11.61-21.08-18.81-34.67-18.81s-25.86,7.2-34.67,18.81c-.83,1.09-.05,2.65,1.32,2.65Z"/><g><g><circle cx="177.24" cy="134.4" r="4.44"/><circle class="cls-1" cx="175.05" cy="134.99" r="1.14"/><circle class="cls-1" cx="176.18" cy="136.58" r=".43"/></g><g><circle cx="222.76" cy="134.4" r="4.44"/><circle class="cls-1" cx="220.57" cy="134.99" r="1.14"/><circle class="cls-1" cx="221.7" cy="136.58" r=".43"/></g><rect x="166.03" y="115.96" width="22.42" height="8.24" rx="3.94" ry="3.94"/><rect x="211.55" y="115.96" width="22.42" height="8.24" rx="3.94" ry="3.94"/></g><g><path class="cls-9" d="M167.75,213.19h0Z"/><path class="cls-9" d="M232.3,213.21l-6.66,9.78c-12.31,18.07-38.95,18.05-51.24-.02l-6.64-9.77c-58.13,9.58-101.23,44.48-101.23,86.07,0,16.78,59.76,30.38,133.47,30.38s133.47-13.6,133.47-30.38c0-41.58-43.06-76.47-101.17-86.06Z"/></g><path class="cls-2" d="M200.03,246.59c-19.76-.12-30.96-8.44-36.89-15.39-6.43-7.55-8.15-14.98-8.22-15.29l1.79-.4c.02,.07,1.72,7.36,7.89,14.57,5.68,6.63,16.43,14.57,35.43,14.68,19.02-.11,29.78-8.08,35.47-14.74,6.15-7.21,7.83-14.43,7.85-14.5l1.79,.4c-.07,.31-1.8,7.74-8.24,15.29-5.93,6.95-17.14,15.26-36.86,15.38Z"/><path class="cls-9" d="M150.55,174.53h0Z"/><g><path class="cls-4" d="M152.02,214.8c-63.6,13.27-88.33,50.94-88.33,85.32,0,16.48,56.63,29.95,128.02,30.88v-75.78c-22.08-2.07-41.52-18.46-39.69-40.43Z"/><g class="cls-7"><path class="cls-4" d="M129.25,238.11l20.55,7.58c4.42,1.63,6.64,6.57,4.93,10.96h0c-1.65,4.23,2.26,8.52,6.63,7.27l30.35-8.69c-22.08-2.07-41.52-18.46-39.69-40.43l-23.58,13.38c-4.06,2.31-3.57,8.31,.81,9.93Z"/></g><path class="cls-4" d="M247.98,214.8c63.6,13.27,88.33,50.94,88.33,85.32,0,16.48-56.63,29.95-128.02,30.88v-75.78c22.08-2.07,41.52-18.46,39.69-40.43Z"/><g class="cls-7"><path class="cls-4" d="M270.75,238.11l-20.55,7.58c-4.42,1.63-6.64,6.57-4.93,10.96h0c1.65,4.23-2.26,8.52-6.63,7.27l-30.35-8.69c22.08-2.07,41.52-18.46,39.69-40.43l23.58,13.38c4.06,2.31,3.57,8.31-.81,9.93Z"/></g></g><g><g><circle class="cls-2" cx="186.27" cy="244.54" r="2.75"/><path d="M186.27,247.97c-1.89,0-3.43-1.54-3.43-3.43s1.54-3.43,3.43-3.43,3.43,1.54,3.43,3.43-1.54,3.43-3.43,3.43Zm0-5.49c-1.14,0-2.06,.92-2.06,2.06s.92,2.06,2.06,2.06,2.06-.92,2.06-2.06-.92-2.06-2.06-2.06Z"/><rect class="cls-8" x="185.05" y="244.08" width="2.44" height="79.16" rx="1.17" ry="1.17"/></g><g><circle class="cls-2" cx="213.73" cy="244.54" r="2.75"/><path d="M213.73,247.97c-1.89,0-3.43-1.54-3.43-3.43s1.54-3.43,3.43-3.43,3.43,1.54,3.43,3.43-1.54,3.43-3.43,3.43Zm0-5.49c-1.14,0-2.06,.92-2.06,2.06s.92,2.06,2.06,2.06,2.06-.92,2.06-2.06-.92-2.06-2.06-2.06Z"/><rect class="cls-8" x="212.51" y="244.08" width="2.44" height="79.16" rx="1.17" ry="1.17"/></g></g><g><g class="cls-7"><path class="cls-4" d="M125.75,326.99c-.51,0-.92-.41-.92-.92,0-29.75-3.65-67.07-21.02-75.92-10.38-5.29-21.1,2.34-21.2,2.41-.41,.3-.98,.21-1.28-.2-.3-.41-.21-.98,.2-1.28,.47-.34,11.71-8.37,23.1-2.57,6.48,3.3,11.62,10.45,15.27,21.26,4.48,13.27,6.76,32.22,6.76,56.3,0,.51-.41,.92-.92,.92Z"/></g><g class="cls-7"><path class="cls-4" d="M274.25,326.99c-.51,0-.92-.41-.92-.92,0-24.09,2.27-43.03,6.76-56.3,3.65-10.81,8.79-17.96,15.27-21.26,11.39-5.79,22.62,2.23,23.1,2.57,.41,.3,.5,.87,.2,1.28-.3,.41-.87,.5-1.28,.2-.11-.08-10.82-7.71-21.2-2.41-17.37,8.86-21.02,46.18-21.02,75.92,0,.51-.41,.92-.92,.92Z"/></g></g></g></g></g></svg>