<?xml version="1.0" encoding="UTF-8"?><svg xmlns="http://www.w3.org/2000/svg" viewBox="0 0 400 400"><defs><style>.cls-1{fill:#fff;}.cls-2{fill:#d6af58;}.cls-3{isolation:isolate;}.cls-4{fill:#97c0e5;}.cls-5{fill:#a5702e;}.cls-6{opacity:.5;}.cls-6,.cls-7{mix-blend-mode:multiply;}.cls-8{fill:#c49c4d;}.cls-9{fill:#edccb9;}</style></defs><g class="cls-3"><g id="Layer_2"><g><path class="cls-8" d="M200.99,68.62h0c31.29,0,56.69,25.4,56.69,56.69v47.81c0,3.29-2.67,5.97-5.97,5.97h-103.44c-3.29,0-5.97-2.67-5.97-5.97v-45.83c0-32.39,26.29-58.68,58.68-58.68Z"/><g class="cls-6"><path class="cls-2" d="M200,79.04c-30.27,0-54.8,31.67-54.8,70.74,0,10.46,1.76,20.38,4.91,29.31h99.77c3.15-8.93,4.91-18.86,4.91-29.31,0-39.07-24.53-70.74-54.8-70.74Z"/></g><path class="cls-9" d="M200,215.09c-55.07,0-99.72,38.66-99.72,86.34,0,16.33,44.65,29.57,99.72,29.57s99.72-13.24,99.72-29.57c0-47.68-44.65-86.34-99.72-86.34Z"/><g><circle class="cls-9" cx="153.36" cy="145.94" r="13.5"/><circle class="cls-9" cx="246.64" cy="145.94" r="13.5"/><g class="cls-7"><path class="cls-9" d="M161.35,145.66c-.24,0-.47-.13-.59-.36-.03-.05-2.72-5.12-7.06-5.78-2.52-.39-5.17,.78-7.86,3.47-.26,.26-.68,.26-.94,0-.26-.26-.26-.68,0-.94,3.01-3.01,6.04-4.3,9.01-3.84,5.02,.77,7.92,6.25,8.04,6.49,.17,.33,.04,.73-.28,.9-.1,.05-.2,.08-.31,.08Z"/></g><g class="cls-7"><path class="cls-9" d="M238.65,145.66c-.1,0-.21-.02-.31-.08-.33-.17-.45-.57-.28-.9,.12-.23,3.02-5.71,8.04-6.49,2.97-.46,6,.84,9.01,3.84,.26,.26,.26,.68,0,.94-.26,.26-.68,.26-.94,0-2.69-2.69-5.33-3.86-7.86-3.47-4.35,.67-7.04,5.73-7.06,5.78-.12,.23-.35,.36-.59,.36Z"/></g></g><g><rect class="cls-9" x="176.51" y="157.53" width="46.99" height="83.04"/><g class="cls-7"><polygon class="cls-9" points="176.51 217.63 198.84 187.79 176.51 187.79 176.51 217.63"/></g></g><path class="cls-1" d="M246.33,167.07c-3.19,0-5.79-2.6-5.79-5.79s2.6-5.79,5.79-5.79,5.79,2.6,5.79,5.79-2.6,5.79-5.79,5.79Zm0-9.8c-2.21,0-4.01,1.8-4.01,4.01s1.8,4.01,4.01,4.01,4.01-1.8,4.01-4.01-1.8-4.01-4.01-4.01Z"/><ellipse class="cls-9" cx="200" cy="140.96" rx="47.97" ry="61.92"/><g class="cls-7"><path class="cls-9" d="M207.2,160.16h-9c-3.35,0-6.07-2.72-6.07-6.07v-23.33c0-.37,.3-.67,.67-.67s.67,.3,.67,.67v23.33c0,2.61,2.12,4.73,4.73,4.73h9c.37,0,.67,.3,.67,.67s-.3,.67-.67,.67Z"/></g><g><circle cx="177.7" cy="140.47" r="4.32"/><circle class="cls-1" cx="175.57" cy="141.05" r="1.11"/><circle class="cls-1" cx="176.67" cy="142.59" r=".42"/></g><g><path d="M186.22,139.71c-.12,0-.24-.03-.35-.1-8.12-5.03-15.68-.06-15.76-.01-.31,.21-.72,.12-.93-.18-.21-.31-.12-.72,.18-.93,.08-.06,8.36-5.5,17.21-.01,.31,.19,.41,.61,.22,.92-.13,.2-.34,.32-.57,.32Z"/><path d="M172.11,138.53c-.09,0-.18-.02-.26-.05l-2.93-1.26c-.34-.15-.5-.54-.35-.88,.15-.34,.54-.5,.88-.35l2.93,1.26c.34,.15,.5,.54,.35,.88-.11,.25-.36,.4-.61,.4Z"/><path d="M174.02,137.9c-.17,0-.34-.06-.47-.19l-1.91-1.87c-.26-.26-.27-.68-.01-.95,.26-.26,.68-.27,.94-.01l1.91,1.87c.26,.26,.27,.68,.01,.95-.13,.13-.3,.2-.48,.2Z"/></g><g><circle cx="222.62" cy="140.47" r="4.32"/><circle class="cls-1" cx="220.49" cy="141.05" r="1.11"/><circle class="cls-1" cx="221.58" cy="142.59" r=".42"/></g><g><path d="M214.1,139.71c-.22,0-.44-.11-.57-.32-.19-.31-.1-.73,.22-.92,8.84-5.48,17.12-.04,17.21,.01,.31,.21,.39,.62,.18,.93-.21,.31-.62,.39-.93,.18-.32-.21-7.67-5-15.76,.01-.11,.07-.23,.1-.35,.1Z"/><path d="M228.21,138.53c-.26,0-.51-.15-.61-.4-.15-.34,.01-.73,.35-.88l2.93-1.26c.34-.15,.73,.01,.88,.35,.15,.34-.01,.73-.35,.88l-2.93,1.26c-.09,.04-.18,.05-.26,.05Z"/><path d="M226.3,137.9c-.17,0-.35-.07-.48-.2-.26-.26-.25-.69,.01-.95l1.91-1.87c.26-.26,.69-.25,.94,.01,.26,.26,.25,.69-.01,.95l-1.91,1.87c-.13,.13-.3,.19-.47,.19Z"/></g><path d="M208.91,181.93c-.37,0-.67-.3-.67-.67s.3-.67,.67-.67c7.81,0,14.16-6.35,14.16-14.16,0-.37,.3-.67,.67-.67s.67,.3,.67,.67c0,8.54-6.95,15.49-15.49,15.49Z"/><path d="M200.45,203.25c-8.49,0-16.87-2.8-24.22-8.11-.3-.22-.37-.63-.15-.93,.22-.3,.63-.37,.93-.15,7.13,5.14,15.24,7.86,23.44,7.86,.37,0,.67,.3,.67,.67s-.3,.67-.67,.67Z"/><path class="cls-1" d="M228.32,218.63c.46,2.08,1.02,7.4-2.72,14.24-11,20.09-40.21,20.09-51.2,0-3.74-6.84-3.18-12.15-2.72-14.24-41.27,10.57-71.39,43.64-71.39,82.8,0,16.33,44.65,29.57,99.72,29.57s99.72-13.24,99.72-29.57c0-39.16-30.12-72.23-71.39-82.8Z"/><path class="cls-8" d="M208.91,80.11s29.85,9.01,38.31,64.69c0,0,10.69-69.24-38.31-64.69Z"/><path class="cls-4" d="M228.32,218.63c.89,4.04,2.17,42.51-28.32,58.4-30.49-15.89-29.21-54.36-28.32-58.4-41.27,10.57-71.39,43.64-71.39,82.8,0,16.33,44.65,29.57,99.72,29.57s99.72-13.24,99.72-29.57c0-39.16-30.12-72.23-71.39-82.8Z"/><path class="cls-5" d="M187.62,130l-20.76-.29c-1.83-.03-2.02-2.75-.2-2.96h.04l20.39-2.06c1.46-.15,2.78,.93,2.93,2.39h0c.15,1.46-.93,2.78-2.39,2.93Z"/><path class="cls-5" d="M212.7,130l20.76-.29c1.83-.03,2.02-2.75,.2-2.96h-.04l-20.39-2.06c-1.46-.15-2.78,.93-2.93,2.39h0c-.15,1.46,.93,2.78,2.39,2.93Z"/><path class="cls-1" d="M152.78,167.07c-3.19,0-5.79-2.6-5.79-5.79s2.6-5.79,5.79-5.79,5.79,2.6,5.79,5.79-2.6,5.79-5.79,5.79Zm0-9.8c-2.21,0-4.01,1.8-4.01,4.01s1.8,4.01,4.01,4.01,4.01-1.8,4.01-4.01-1.8-4.01-4.01-4.01Z"/><path class="cls-8" d="M220.31,86.35s-2.01-.12-5.33,.14c-32.01,2.48-56.14,30.11-54.7,62.18,.48,10.77,1.59,24.61,4.1,37.1,0,0-53.66-70.77,11.63-104.14,8.32-4.25,17.39-6.91,26.71-7.43,9.79-.55,20.36,1.22,17.58,12.14Z"/><path class="cls-8" d="M222.08,87.84c-13.8,.82-41.2,6.45-50.94,37.27,7.18-39.55,49.9-43.78,49.9-43.78,.45,2.23,.79,4.4,1.04,6.51Z"/><path class="cls-1" d="M200,293.14c-2.33,0-4.23-1.9-4.23-4.23s1.9-4.23,4.23-4.23,4.23,1.9,4.23,4.23-1.9,4.23-4.23,4.23Zm0-7.57c-1.84,0-3.34,1.5-3.34,3.34s1.5,3.34,3.34,3.34,3.34-1.5,3.34-3.34-1.5-3.34-3.34-3.34Z"/></g></g></g></svg>