<?xml version="1.0" encoding="UTF-8"?><svg xmlns="http://www.w3.org/2000/svg" viewBox="0 0 400 400"><defs><style>.cls-1,.cls-2{fill:#8c6239;}.cls-3{fill:#fff;}.cls-4{isolation:isolate;}.cls-5{fill:#017b71;}.cls-6{fill:#603813;}.cls-7{fill:#333;}.cls-8{fill:#c69c6d;}.cls-9{fill:#ff9ca1;}.cls-10{fill:#1a1a1a;}.cls-11,.cls-2{mix-blend-mode:multiply;}.cls-2{opacity:.25;}.cls-12{fill:#f2f2f2;}</style></defs><g class="cls-4"><g id="Layer_2"><g><path d="M248.27,186.09V119.33c0-3.95-4.87-5.83-7.52-2.9l-26.81,29.6"/><path class="cls-10" d="M242.46,182.85v-49.88c0-2.95-3.64-4.35-5.62-2.17l-20.03,22.11"/><g><path d="M151.27,179.66c-1.95-.18-3.92,.52-5.31,1.97,.15-.44,.36-.87,.61-1.29,1.78-2.9,5.45-3.92,8.44-2.47,.87-.2,1.78-.3,2.71-.25l-.2,4.2c-4.65-.22-8.7,2.86-9.87,7.17-.12-.68-.16-1.39-.13-2.11,.14-2.95,1.59-5.53,3.75-7.22Z"/><path d="M248.73,179.66c1.95-.18,3.92,.52,5.31,1.97-.15-.44-.36-.87-.61-1.29-1.78-2.9-5.45-3.92-8.44-2.47-.87-.2-1.78-.3-2.71-.25l.2,4.2c4.65-.22,8.7,2.86,9.87,7.17,.12-.68,.16-1.39,.13-2.11-.14-2.95-1.59-5.53-3.75-7.22Z"/></g><polygon points="179.25 137.51 152.64 137.51 152.64 186.09 186.96 146.02 179.25 137.51"/><polygon class="cls-10" points="173.74 140.97 158.15 144.23 158.15 185.01 186.96 151.38 173.74 140.97"/><path d="M265.64,306.69c2.13,4.21,.89,9.36-2.95,12.1-10.2,7.28-34.41,12.4-62.66,12.4s-52.55-5.14-62.72-12.45c-3.78-2.72-5.05-7.77-3.02-11.97l36.26-74.76h57.4l37.69,74.67Z"/><path class="cls-12" d="M205.38,299.39l24.24-53.94h-59.25l24.34,53.95c2.07,4.6,8.6,4.59,10.67,0Z"/><path d="M248.29,191.94c0-28.12-21.62-50.91-48.29-50.91s-48.29,22.79-48.29,50.91c0,13.79,5.2,26.3,13.65,35.47,1.85,17.67,8.77,29.93,34.64,30.1,25.91,.17,32.81-12.29,34.65-30.1,8.44-9.17,13.64-21.67,13.64-35.46Z"/><circle class="cls-6" cx="226.31" cy="191.54" r="5.06"/><circle cx="226.31" cy="191.54" r="3.19"/><circle class="cls-6" cx="173.69" cy="191.54" r="5.06"/><circle cx="173.69" cy="191.54" r="3.19"/><circle class="cls-3" cx="171.2" cy="192.21" r="1.3"/><circle class="cls-3" cx="172.48" cy="194.02" r=".5"/><circle class="cls-3" cx="223.81" cy="192.21" r="1.3"/><circle class="cls-3" cx="225.1" cy="194.02" r=".5"/><g><rect class="cls-8" x="175.09" y="179.35" width="5.49" height="5.49" rx="2.75" ry="2.75"/><rect class="cls-8" x="219.41" y="179.35" width="5.49" height="5.49" rx="2.75" ry="2.75"/></g><path class="cls-9" d="M200,267.25c4.23,0,7.69-3.46,7.69-7.69v-13.44c-4.34-.55-7.69-4.26-7.69-8.75,0,4.49-3.35,8.19-7.69,8.75v13.44c0,4.23,3.46,7.69,7.69,7.69Z"/><g class="cls-11"><path class="cls-9" d="M200,261.62c-.33,0-.6-.27-.6-.6v-20.19c0-.33,.27-.6,.6-.6s.6,.27,.6,.6v20.19c0,.33-.27,.6-.6,.6Z"/></g><path class="cls-12" d="M199.81,222.2c2.47,0,8.52,.19,10.77,.53,.48,.07,.9-.32,.84-.81l-7.83-11.06c-.61-.87-.96-1.89-1-2.95l-1.87-46.48c-.1-.86-1.35-.86-1.46,0l-1.87,46.47c-.04,1.06-.39,2.09-1.01,2.96l-7.82,11.01c-.06,.47,.35,.88,.83,.81,2.15-.31,8.07-.48,10.42-.48Z"/><g><path class="cls-1" d="M267.84,219.49l-24.23,24.23,4.56,4.56,24.23-24.23c.61-.61,.08-2.12-1.18-3.38s-2.77-1.79-3.38-1.18Z"/><path class="cls-1" d="M270.38,234.91H129.62v17.09h140.75c2.28,0,4.12-3.83,4.12-8.54s-1.85-8.54-4.12-8.54Z"/><path class="cls-2" d="M129.62,243.95v8.04h140.75c2.2,0,3.99-3.56,4.11-8.04H129.62Z"/><ellipse class="cls-6" cx="129.62" cy="243.45" rx="4.12" ry="8.54"/><path class="cls-5" d="M260.5,230.94c-.01-14.77-11.82-12.53-12.41-12.41h-.01c-.12,.6-2.36,12.41,12.41,12.42h.01s0,0,0,0h0Z"/></g><ellipse cx="209.73" cy="237.13" rx="9.96" ry="10.38"/><path class="cls-7" d="M209.56,248c5.78,0,10.48-4.7,10.48-10.48,0-.38-.31-.68-.68-.68s-.68,.31-.68,.68c0,5.02-4.09,9.11-9.11,9.11-5.02,0-9.11-4.09-9.11-9.11v-6.6c0-.38-.31-.68-.68-.68s-.68,.31-.68,.68v6.6c0,5.78,4.7,10.48,10.48,10.48Z"/><ellipse cx="190.06" cy="237.13" rx="9.96" ry="10.38"/><path class="cls-7" d="M190.22,248c-5.78,0-10.48-4.7-10.48-10.48,0-.38,.31-.68,.68-.68s.68,.31,.68,.68c0,5.02,4.09,9.11,9.11,9.11s9.11-4.09,9.11-9.11v-6.6c0-.38,.31-.68,.68-.68s.68,.31,.68,.68v6.6c0,5.78-4.7,10.48-10.48,10.48Z"/><path class="cls-7" d="M213.74,226.96c0,3.84-6.15,10.26-13.74,10.26s-13.74-6.41-13.74-10.26c0-6.96,6.15-6.96,13.74-6.96s13.74,0,13.74,6.96Z"/><g><path class="cls-8" d="M234.8,227.3c8.39-9.16,13.55-21.62,13.55-35.35,0-2.95-.24-5.84-.7-8.66-.51,20.12-8.15,30.22-12.03,34.07-1.27,1.26-1.81,3.08-1.43,4.83,.38,1.78,.57,3.49,.61,5.11Z"/><path class="cls-8" d="M165.2,227.3c-8.39-9.16-13.55-21.62-13.55-35.35,0-2.95,.24-5.84,.7-8.66,.51,20.12,8.15,30.22,12.03,34.07,1.27,1.26,1.81,3.08,1.43,4.83-.38,1.78-.57,3.49-.61,5.11Z"/></g><g><circle cx="194.51" cy="231.91" r="1.83"/><circle cx="205.49" cy="231.91" r="1.83"/></g><path class="cls-7" d="M178.87,137.51l-24.75,21.09c-3.44,2.93-7.8,1.05-6.74-2.9l4.87-18.19h26.62Z"/><path d="M211.46,135.33c-.92-.16-1.88-.22-2.85-.17-7.26,.35-12.86,6.52-12.51,13.77l5.68-.27c-.3-6.28,3.86-11.75,9.69-13.33Z"/><path d="M201.52,133.04c-.6,.21-1.18,.48-1.74,.82-4.17,2.57-5.47,8.03-2.91,12.2l3.26-2.01c-2.22-3.61-1.54-8.19,1.39-11.02Z"/><path d="M200,237.45c-.33,0-.6-.27-.6-.6v-7.33c0-.33,.27-.6,.6-.6s.6,.27,.6,.6v7.33c0,.33-.27,.6-.6,.6Z"/><g><circle class="cls-7" cx="219.78" cy="231.17" r=".73"/><circle class="cls-7" cx="224.17" cy="229.71" r=".73"/><circle class="cls-7" cx="224.17" cy="234.1" r=".73"/><circle class="cls-7" cx="180.22" cy="231.17" r=".73"/><circle class="cls-7" cx="175.83" cy="229.71" r=".73"/><circle class="cls-7" cx="175.83" cy="234.1" r=".73"/></g></g></g></g></svg>